<svg aria-roledescription="er" role="graphics-document document" viewBox="0 0 353.0148620605469 356" style="max-width: 353.015px; background-color: white;" xmlns:xlink="http://www.w3.org/1999/xlink" xmlns="http://www.w3.org/2000/svg" width="100%" id="my-svg"><style>#my-svg{font-family:"trebuchet ms",verdana,arial,sans-serif;font-size:16px;fill:#000000;}#my-svg .error-icon{fill:#552222;}#my-svg .error-text{fill:#552222;stroke:#552222;}#my-svg .edge-thickness-normal{stroke-width:2px;}#my-svg .edge-thickness-thick{stroke-width:3.5px;}#my-svg .edge-pattern-solid{stroke-dasharray:0;}#my-svg .edge-pattern-dashed{stroke-dasharray:3;}#my-svg .edge-pattern-dotted{stroke-dasharray:2;}#my-svg .marker{fill:#000000;stroke:#000000;}#my-svg .marker.cross{stroke:#000000;}#my-svg svg{font-family:"trebuchet ms",verdana,arial,sans-serif;font-size:16px;}#my-svg .entityBox{fill:#cde498;stroke:#13540c;}#my-svg .attributeBoxOdd{fill:#ffffff;stroke:#13540c;}#my-svg .attributeBoxEven{fill:#f2f2f2;stroke:#13540c;}#my-svg .relationshipLabelBox{fill:hsl(78.1578947368, 58.4615384615%, 84.5098039216%);opacity:0.7;background-color:hsl(78.1578947368, 58.4615384615%, 84.5098039216%);}#my-svg .relationshipLabelBox rect{opacity:0.5;}#my-svg .relationshipLine{stroke:#000000;}#my-svg .entityTitleText{text-anchor:middle;font-size:18px;fill:#000000;}#my-svg #MD_PARENT_START{fill:#f5f5f5!important;stroke:#000000!important;stroke-width:1;}#my-svg #MD_PARENT_END{fill:#f5f5f5!important;stroke:#000000!important;stroke-width:1;}#my-svg :root{--mermaid-font-family:"trebuchet ms",verdana,arial,sans-serif;}</style><g/><defs><marker orient="auto" markerHeight="240" markerWidth="190" refY="7" refX="0" id="MD_PARENT_START"><path d="M 18,7 L9,13 L1,7 L9,1 Z"/></marker></defs><defs><marker orient="auto" markerHeight="28" markerWidth="20" refY="7" refX="19" id="MD_PARENT_END"><path d="M 18,7 L9,13 L1,7 L9,1 Z"/></marker></defs><defs><marker orient="auto" markerHeight="18" markerWidth="18" refY="9" refX="0" id="ONLY_ONE_START"><path d="M9,0 L9,18 M15,0 L15,18" fill="none" stroke="gray"/></marker></defs><defs><marker orient="auto" markerHeight="18" markerWidth="18" refY="9" refX="18" id="ONLY_ONE_END"><path d="M3,0 L3,18 M9,0 L9,18" fill="none" stroke="gray"/></marker></defs><defs><marker orient="auto" markerHeight="18" markerWidth="30" refY="9" refX="0" id="ZERO_OR_ONE_START"><circle r="6" cy="9" cx="21" fill="white" stroke="gray"/><path d="M9,0 L9,18" fill="none" stroke="gray"/></marker></defs><defs><marker orient="auto" markerHeight="18" markerWidth="30" refY="9" refX="30" id="ZERO_OR_ONE_END"><circle r="6" cy="9" cx="9" fill="white" stroke="gray"/><path d="M21,0 L21,18" fill="none" stroke="gray"/></marker></defs><defs><marker orient="auto" markerHeight="36" markerWidth="45" refY="18" refX="18" id="ONE_OR_MORE_START"><path d="M0,18 Q 18,0 36,18 Q 18,36 0,18 M42,9 L42,27" fill="none" stroke="gray"/></marker></defs><defs><marker orient="auto" markerHeight="36" markerWidth="45" refY="18" refX="27" id="ONE_OR_MORE_END"><path d="M3,9 L3,27 M9,18 Q27,0 45,18 Q27,36 9,18" fill="none" stroke="gray"/></marker></defs><defs><marker orient="auto" markerHeight="36" markerWidth="57" refY="18" refX="18" id="ZERO_OR_MORE_START"><circle r="6" cy="18" cx="48" fill="white" stroke="gray"/><path d="M0,18 Q18,0 36,18 Q18,36 0,18" fill="none" stroke="gray"/></marker></defs><defs><marker orient="auto" markerHeight="36" markerWidth="57" refY="18" refX="39" id="ZERO_OR_MORE_END"><circle r="6" cy="18" cx="9" fill="white" stroke="gray"/><path d="M21,18 Q39,0 57,18 Q39,36 21,18" fill="none" stroke="gray"/></marker></defs><path style="stroke: gray; fill: none;" marker-start="url(#ZERO_OR_MORE_START)" marker-end="url(#ZERO_OR_MORE_END)" d="M256.2137216986182,107L251.75739371287844,115.33333333333333C247.3010657271387,123.66666666666667,238.38840975565918,140.33333333333334,237.571091959148,157C236.75377416263674,173.66666666666666,244.03179454109377,190.33333333333334,247.67080473032232,198.66666666666666L251.30981491955086,207" class="er relationshipLine"/><path style="stroke: gray; fill: none;" marker-start="url(#ZERO_OR_ONE_START)" marker-end="url(#ONLY_ONE_END)" d="M307.6416926488085,207L311.28070283803703,198.66666666666666C314.9197130272656,190.33333333333334,322.1977334057226,173.66666666666666,321.3804156092114,157C320.56309781270016,140.33333333333334,311.6504418412207,123.66666666666667,307.1941138554809,115.33333333333333L302.7377858697412,107" class="er relationshipLine"/><g transform="translate(20,20 )" id="entity-Admin-ac960f68-b1b2-5358-9d08-eeaa5108f92f"><rect height="87" width="106.31716918945312" y="0" x="0" class="er entityBox"/><text style="dominant-baseline: middle; text-anchor: middle; font-size: 12px;" transform="translate(53.15858459472656,12)" y="0" x="0" id="text-entity-Admin-ac960f68-b1b2-5358-9d08-eeaa5108f92f" class="er entityLabel">Admin</text><rect height="21" width="36.947052001953125" y="24" x="0" class="er attributeBoxOdd"/><text style="dominant-baseline: middle; font-size: 10.2px;" transform="translate(5,34.5)" y="0" x="0" id="text-entity-Admin-ac960f68-b1b2-5358-9d08-eeaa5108f92f-attr-1-type" class="er entityLabel">Int</text><rect height="21" width="55.6357421875" y="24" x="36.947052001953125" class="er attributeBoxOdd"/><text style="dominant-baseline: middle; font-size: 10.2px;" transform="translate(41.947052001953125,34.5)" y="0" x="0" id="text-entity-Admin-ac960f68-b1b2-5358-9d08-eeaa5108f92f-attr-1-name" class="er entityLabel">id</text><rect height="21" width="13.734375" y="24" x="92.58279418945312" class="er attributeBoxOdd"/><text style="dominant-baseline: middle; font-size: 10.2px;" transform="translate(97.58279418945312,34.5)" y="0" x="0" id="text-entity-Admin-ac960f68-b1b2-5358-9d08-eeaa5108f92f-attr-1-comment" class="er entityLabel">🗝️</text><rect height="21" width="36.947052001953125" y="45" x="0" class="er attributeBoxEven"/><text style="dominant-baseline: middle; font-size: 10.2px;" transform="translate(5,55.5)" y="0" x="0" id="text-entity-Admin-ac960f68-b1b2-5358-9d08-eeaa5108f92f-attr-2-type" class="er entityLabel">String</text><rect height="21" width="55.6357421875" y="45" x="36.947052001953125" class="er attributeBoxEven"/><text style="dominant-baseline: middle; font-size: 10.2px;" transform="translate(41.947052001953125,55.5)" y="0" x="0" id="text-entity-Admin-ac960f68-b1b2-5358-9d08-eeaa5108f92f-attr-2-name" class="er entityLabel">username</text><rect height="21" width="13.734375" y="45" x="92.58279418945312" class="er attributeBoxEven"/><text style="dominant-baseline: middle; font-size: 10.2px;" transform="translate(97.58279418945312,55.5)" y="0" x="0" id="text-entity-Admin-ac960f68-b1b2-5358-9d08-eeaa5108f92f-attr-2-comment" class="er entityLabel"/><rect height="21" width="36.947052001953125" y="66" x="0" class="er attributeBoxOdd"/><text style="dominant-baseline: middle; font-size: 10.2px;" transform="translate(5,76.5)" y="0" x="0" id="text-entity-Admin-ac960f68-b1b2-5358-9d08-eeaa5108f92f-attr-3-type" class="er entityLabel">String</text><rect height="21" width="55.6357421875" y="66" x="36.947052001953125" class="er attributeBoxOdd"/><text style="dominant-baseline: middle; font-size: 10.2px;" transform="translate(41.947052001953125,76.5)" y="0" x="0" id="text-entity-Admin-ac960f68-b1b2-5358-9d08-eeaa5108f92f-attr-3-name" class="er entityLabel">password</text><rect height="21" width="13.734375" y="66" x="92.58279418945312" class="er attributeBoxOdd"/><text style="dominant-baseline: middle; font-size: 10.2px;" transform="translate(97.58279418945312,76.5)" y="0" x="0" id="text-entity-Admin-ac960f68-b1b2-5358-9d08-eeaa5108f92f-attr-3-comment" class="er entityLabel"/></g><g transform="translate(226.31716918945312,20 )" id="entity-User-818c511a-4a32-5484-ba70-875d765a9175"><rect height="87" width="106.31716918945312" y="0" x="0" class="er entityBox"/><text style="dominant-baseline: middle; text-anchor: middle; font-size: 12px;" transform="translate(53.15858459472656,12)" y="0" x="0" id="text-entity-User-818c511a-4a32-5484-ba70-875d765a9175" class="er entityLabel">User</text><rect height="21" width="36.947052001953125" y="24" x="0" class="er attributeBoxOdd"/><text style="dominant-baseline: middle; font-size: 10.2px;" transform="translate(5,34.5)" y="0" x="0" id="text-entity-User-818c511a-4a32-5484-ba70-875d765a9175-attr-1-type" class="er entityLabel">Int</text><rect height="21" width="55.6357421875" y="24" x="36.947052001953125" class="er attributeBoxOdd"/><text style="dominant-baseline: middle; font-size: 10.2px;" transform="translate(41.947052001953125,34.5)" y="0" x="0" id="text-entity-User-818c511a-4a32-5484-ba70-875d765a9175-attr-1-name" class="er entityLabel">id</text><rect height="21" width="13.734375" y="24" x="92.58279418945312" class="er attributeBoxOdd"/><text style="dominant-baseline: middle; font-size: 10.2px;" transform="translate(97.58279418945312,34.5)" y="0" x="0" id="text-entity-User-818c511a-4a32-5484-ba70-875d765a9175-attr-1-comment" class="er entityLabel">🗝️</text><rect height="21" width="36.947052001953125" y="45" x="0" class="er attributeBoxEven"/><text style="dominant-baseline: middle; font-size: 10.2px;" transform="translate(5,55.5)" y="0" x="0" id="text-entity-User-818c511a-4a32-5484-ba70-875d765a9175-attr-2-type" class="er entityLabel">String</text><rect height="21" width="55.6357421875" y="45" x="36.947052001953125" class="er attributeBoxEven"/><text style="dominant-baseline: middle; font-size: 10.2px;" transform="translate(41.947052001953125,55.5)" y="0" x="0" id="text-entity-User-818c511a-4a32-5484-ba70-875d765a9175-attr-2-name" class="er entityLabel">username</text><rect height="21" width="13.734375" y="45" x="92.58279418945312" class="er attributeBoxEven"/><text style="dominant-baseline: middle; font-size: 10.2px;" transform="translate(97.58279418945312,55.5)" y="0" x="0" id="text-entity-User-818c511a-4a32-5484-ba70-875d765a9175-attr-2-comment" class="er entityLabel"/><rect height="21" width="36.947052001953125" y="66" x="0" class="er attributeBoxOdd"/><text style="dominant-baseline: middle; font-size: 10.2px;" transform="translate(5,76.5)" y="0" x="0" id="text-entity-User-818c511a-4a32-5484-ba70-875d765a9175-attr-3-type" class="er entityLabel">String</text><rect height="21" width="55.6357421875" y="66" x="36.947052001953125" class="er attributeBoxOdd"/><text style="dominant-baseline: middle; font-size: 10.2px;" transform="translate(41.947052001953125,76.5)" y="0" x="0" id="text-entity-User-818c511a-4a32-5484-ba70-875d765a9175-attr-3-name" class="er entityLabel">password</text><rect height="21" width="13.734375" y="66" x="92.58279418945312" class="er attributeBoxOdd"/><text style="dominant-baseline: middle; font-size: 10.2px;" transform="translate(97.58279418945312,76.5)" y="0" x="0" id="text-entity-User-818c511a-4a32-5484-ba70-875d765a9175-attr-3-comment" class="er entityLabel"/></g><g transform="translate(226.1398162841797,207 )" id="entity-Course-e6435c0c-5f73-5cd3-80c6-be59c059830f"><rect height="129" width="106.671875" y="0" x="0" class="er entityBox"/><text style="dominant-baseline: middle; text-anchor: middle; font-size: 12px;" transform="translate(53.3359375,12)" y="0" x="0" id="text-entity-Course-e6435c0c-5f73-5cd3-80c6-be59c059830f" class="er entityLabel">Course</text><rect height="21" width="47.390625" y="24" x="0" class="er attributeBoxOdd"/><text style="dominant-baseline: middle; font-size: 10.2px;" transform="translate(5,34.5)" y="0" x="0" id="text-entity-Course-e6435c0c-5f73-5cd3-80c6-be59c059830f-attr-1-type" class="er entityLabel">String</text><rect height="21" width="59.28125" y="24" x="47.390625" class="er attributeBoxOdd"/><text style="dominant-baseline: middle; font-size: 10.2px;" transform="translate(52.390625,34.5)" y="0" x="0" id="text-entity-Course-e6435c0c-5f73-5cd3-80c6-be59c059830f-attr-1-name" class="er entityLabel">title</text><rect height="21" width="47.390625" y="45" x="0" class="er attributeBoxEven"/><text style="dominant-baseline: middle; font-size: 10.2px;" transform="translate(5,55.5)" y="0" x="0" id="text-entity-Course-e6435c0c-5f73-5cd3-80c6-be59c059830f-attr-2-type" class="er entityLabel">String</text><rect height="21" width="59.28125" y="45" x="47.390625" class="er attributeBoxEven"/><text style="dominant-baseline: middle; font-size: 10.2px;" transform="translate(52.390625,55.5)" y="0" x="0" id="text-entity-Course-e6435c0c-5f73-5cd3-80c6-be59c059830f-attr-2-name" class="er entityLabel">description</text><rect height="21" width="47.390625" y="66" x="0" class="er attributeBoxOdd"/><text style="dominant-baseline: middle; font-size: 10.2px;" transform="translate(5,76.5)" y="0" x="0" id="text-entity-Course-e6435c0c-5f73-5cd3-80c6-be59c059830f-attr-3-type" class="er entityLabel">Float</text><rect height="21" width="59.28125" y="66" x="47.390625" class="er attributeBoxOdd"/><text style="dominant-baseline: middle; font-size: 10.2px;" transform="translate(52.390625,76.5)" y="0" x="0" id="text-entity-Course-e6435c0c-5f73-5cd3-80c6-be59c059830f-attr-3-name" class="er entityLabel">price</text><rect height="21" width="47.390625" y="87" x="0" class="er attributeBoxEven"/><text style="dominant-baseline: middle; font-size: 10.2px;" transform="translate(5,97.5)" y="0" x="0" id="text-entity-Course-e6435c0c-5f73-5cd3-80c6-be59c059830f-attr-4-type" class="er entityLabel">String</text><rect height="21" width="59.28125" y="87" x="47.390625" class="er attributeBoxEven"/><text style="dominant-baseline: middle; font-size: 10.2px;" transform="translate(52.390625,97.5)" y="0" x="0" id="text-entity-Course-e6435c0c-5f73-5cd3-80c6-be59c059830f-attr-4-name" class="er entityLabel">imageLink</text><rect height="21" width="47.390625" y="108" x="0" class="er attributeBoxOdd"/><text style="dominant-baseline: middle; font-size: 10.2px;" transform="translate(5,118.5)" y="0" x="0" id="text-entity-Course-e6435c0c-5f73-5cd3-80c6-be59c059830f-attr-5-type" class="er entityLabel">Boolean</text><rect height="21" width="59.28125" y="108" x="47.390625" class="er attributeBoxOdd"/><text style="dominant-baseline: middle; font-size: 10.2px;" transform="translate(52.390625,118.5)" y="0" x="0" id="text-entity-Course-e6435c0c-5f73-5cd3-80c6-be59c059830f-attr-5-name" class="er entityLabel">published</text></g><rect height="14" width="100.734375" y="149.26535034179688" x="187.24517822265625" class="er relationshipLabelBox"/><text style="text-anchor: middle; dominant-baseline: middle; font-size: 12px;" y="156.26535034179688" x="237.61236572265625" id="rel1" class="er relationshipLabel">purchasedCourses</text><rect height="14" width="23.34765625" y="149.26536560058594" x="309.6652526855469" class="er relationshipLabelBox"/><text style="text-anchor: middle; dominant-baseline: middle; font-size: 12px;" y="156.26536560058594" x="321.3390808105469" id="rel2" class="er relationshipLabel">user</text></svg>